<svg width="72" height="72" viewBox="0 0 72 72" fill="none" xmlns="http://www.w3.org/2000/svg">
<path d="M29.95 14.975C29.95 13.3863 30.5811 11.8628 31.7044 10.7394C32.8278 9.61607 34.3514 8.98499 35.94 8.98499C37.5286 8.98499 39.0522 9.61607 40.1756 10.7394C41.2989 11.8628 41.93 13.3863 41.93 14.975C45.3695 16.6014 48.3016 19.133 50.412 22.2987C52.5224 25.4643 53.7316 29.1446 53.91 32.945V41.93C54.1354 43.792 54.7948 45.5751 55.8352 47.1357C56.8756 48.6963 58.2679 49.9908 59.9 50.915H11.98C13.6121 49.9908 15.0044 48.6963 16.0448 47.1357C17.0852 45.5751 17.7446 43.792 17.97 41.93V32.945C18.1484 29.1446 19.3576 25.4643 21.468 22.2987C23.5784 19.133 26.5105 16.6014 29.95 14.975Z" stroke="black" stroke-width="3" stroke-linecap="round" stroke-linejoin="round"/>
<path d="M26.955 50.915V53.91C26.955 56.2929 27.9016 58.5783 29.5866 60.2633C31.2717 61.9483 33.557 62.895 35.94 62.895C38.323 62.895 40.6083 61.9483 42.2934 60.2633C43.9784 58.5783 44.925 56.2929 44.925 53.91V50.915" stroke="black" stroke-width="3" stroke-linecap="round" stroke-linejoin="round"/>
</svg>
