<svg viewBox="0 0 128 128" xml:space="preserve" xmlns="http://www.w3.org/2000/svg" enable-background="new 0 0 128 128"><path d="M121.55 40.28c-.4-.45-10-11.11-22.42-9.53-8.65 1.1-16.16 7.78-22.33 19.84-.48.93-.42 2 .07 2.85-13.12-9.13-31.49-16.03-45.3-20.37.52 10.22 29.17 35.46 18.33 51.43a2.312 2.312 0 0 1-3.13.67s-.01 0-.01-.01a84.26 84.26 0 0 1-8.92-6.22c-.84-.68-1.89-.68-2.88-.49-.7.14-26.28 4.3-26.28 4.3a2.999 2.999 0 0 0-2.43 3.48c1.68 9.54 14.22 30.15 29.66 35.19a2.995 2.995 0 0 0 2.9-.59c2.57-2.24 10.44-8.26 15.98-9.24 3.42-.6 6.63-1.1 9.74-1.57 16.21-2.49 29.01-4.45 38.57-18.4 7.91-11.54 9.93-22.87 11.55-31.98 1.47-8.27 2.47-13.03 5.95-14.65.86-.4 1.48-1.18 1.67-2.11a3.08 3.08 0 0 0-.72-2.6z" fill="#9f3db8" class="fill-000000"></path><path d="M23.5 71.48c-.92 0-1.82-.42-2.41-1.21C5.4 49.11 9.09 28.05 9.25 27.16c.15-.8.62-1.51 1.3-1.96.68-.45 1.51-.6 2.31-.42.52.12 12.83 2.91 28 8.2C61.4 40.14 76.49 48.1 85.73 56.64c1.22 1.12 1.29 3.02.17 4.24s-3.02 1.29-4.24.17C64.1 44.83 26.24 34.33 14.85 31.44c-.31 6.27.38 20.84 11.06 35.25a3.002 3.002 0 0 1-2.41 4.79zM73.71 38.57c-.56 0-1.13-.16-1.63-.49-10.87-7.06-28.19-14.56-34.94-17.38-.12.46-.25 1.01-.39 1.67a3.004 3.004 0 0 1-3.57 2.3 2.99 2.99 0 0 1-2.29-3.57c1.06-4.91 1.88-7.01 4.14-7.31.51-.07 1.03-.01 1.52.19 1 .4 24.64 9.87 38.81 19.09a3 3 0 0 1 .88 4.15c-.58.87-1.54 1.35-2.53 1.35z" fill="#9f3db8" class="fill-000000"></path></svg>
