<svg viewBox="0 0 500 500" xml:space="preserve" xmlns="http://www.w3.org/2000/svg"><path clip-rule="evenodd" d="M56.629 379.2c-14.09 14.071-14.09 36.975 0 51.055 14.08 14.087 36.981 14.087 50.965 0l10.177-10.08 42.438 42.428a18.413 18.413 0 0 0 26.155 0l63.244-63.244a18.415 18.415 0 0 0 0-26.157l-42.429-42.427 75.586-75.682c16.174 8.357 34.61 13.075 54.059 13.075 65.234 0 118.111-52.869 118.111-118.109 0-65.232-52.877-118.111-118.111-118.111-65.238 0-118.11 52.879-118.11 118.111 0 19.449 4.721 37.886 13.077 54.06L56.629 379.2zm234.767-229.141c0-25.075 20.354-45.429 45.427-45.429 25.076 0 45.426 20.354 45.426 45.429s-20.35 45.426-45.426 45.426c-25.072 0-45.427-20.352-45.427-45.426z" fill="#9f3db8" fill-rule="evenodd" class="fill-010101"></path></svg>
