<svg width="72" height="72" viewBox="0 0 72 72" fill="none" xmlns="http://www.w3.org/2000/svg">
<path d="M35.94 62.895C50.8268 62.895 62.895 50.8268 62.895 35.94C62.895 21.0531 50.8268 8.98499 35.94 8.98499C21.0532 8.98499 8.985 21.0531 8.985 35.94C8.985 50.8268 21.0532 62.895 35.94 62.895Z" stroke="black" stroke-width="3" stroke-linecap="round" stroke-linejoin="round"/>
<path d="M35.94 38.935C40.9023 38.935 44.925 34.9123 44.925 29.95C44.925 24.9877 40.9023 20.965 35.94 20.965C30.9777 20.965 26.955 24.9877 26.955 29.95C26.955 34.9123 30.9777 38.935 35.94 38.935Z" stroke="black" stroke-width="3" stroke-linecap="round" stroke-linejoin="round"/>
<path d="M18.4732 56.4527C19.2144 53.9855 20.7313 51.823 22.7987 50.286C24.8661 48.7489 27.3738 47.9192 29.95 47.92H41.93C44.5095 47.9191 47.0203 48.7508 49.0892 50.2914C51.1581 51.832 52.6745 53.9992 53.4128 56.4707" stroke="black" stroke-width="3" stroke-linecap="round" stroke-linejoin="round"/>
</svg>
