<svg width="22" height="23" viewBox="0 0 22 23" fill="none" xmlns="http://www.w3.org/2000/svg">
<path d="M21.976 0.461986L21.9749 0.455517C21.9688 0.390453 21.9736 0.324108 21.9412 0.263866C21.8377 0.0705067 21.6199 -0.0339854 21.4031 0.00996001C14.7664 1.33711 8.03789 3.79316 1.40508 7.30879C0.455858 7.81172 -0.0792983 8.7873 0.00956888 9.85469C0.0974595 10.9094 0.777147 11.7727 1.78301 12.1086L7.86504 14.1359L9.89238 20.218C10.2283 21.2238 11.0916 21.9035 12.1463 21.9914C12.2234 21.9973 12.2996 22.0012 12.3758 22.0012C13.3514 22.0012 14.2254 21.4768 14.6922 20.5959C18.1494 14.0732 20.582 7.45805 21.924 0.928608C21.9466 0.818331 21.9794 0.5041 21.976 0.461986ZM1.00664 9.77168C0.962694 9.25312 1.16875 8.56562 1.87383 8.1916C7.87187 5.01289 13.9441 2.71308 19.951 1.34297L8.12578 13.1682L2.09941 11.1594C1.46953 10.9494 1.06133 10.4309 1.00664 9.77168ZM13.8094 20.1271C13.4363 20.8322 12.7508 21.0393 12.2293 20.9943C11.5701 20.9396 11.0516 20.5314 10.8416 19.9016L8.83281 13.8752L20.6433 2.06471C19.2733 8.06623 16.9857 14.1339 13.8094 20.1271Z" fill="white"/>
</svg>
